<mxfile host="app.diagrams.net" agent="Mozilla/5.0 (Macintosh; Intel Mac OS X 10_15_7) AppleWebKit/605.1.15 (KHTML, like Gecko) Version/16.5.2 Safari/605.1.15" version="24.7.6">
  <diagram name="Page-1" id="b520641d-4fe3-3701-9064-5fc419738815">
    <mxGraphModel dx="2158" dy="1664" grid="1" gridSize="10" guides="1" tooltips="1" connect="1" arrows="1" fold="1" page="1" pageScale="1" pageWidth="1100" pageHeight="850" background="none" math="0" shadow="0">
      <root>
        <mxCell id="0" />
        <mxCell id="1" parent="0" />
        <mxCell id="21ea969265ad0168-6" value="base.csv" style="swimlane;html=1;fontStyle=0;childLayout=stackLayout;horizontal=1;startSize=26;fillColor=#e0e0e0;horizontalStack=0;resizeParent=1;resizeLast=0;collapsible=1;marginBottom=0;swimlaneFillColor=#ffffff;align=center;rounded=1;shadow=0;comic=0;labelBackgroundColor=none;strokeWidth=1;fontFamily=Verdana;fontSize=14;" parent="1" vertex="1">
          <mxGeometry x="290" y="-216" width="470" height="170" as="geometry" />
        </mxCell>
        <mxCell id="0Ellkbo9NkKinEL8UdBw-16" value="Assets" style="childLayout=tableLayout;recursiveResize=0;shadow=1;" parent="1" vertex="1">
          <mxGeometry x="290" y="-190" width="470" height="150" as="geometry" />
        </mxCell>
        <mxCell id="0Ellkbo9NkKinEL8UdBw-17" style="shape=tableRow;horizontal=0;startSize=0;swimlaneHead=0;swimlaneBody=0;top=0;left=0;bottom=0;right=0;dropTarget=0;collapsible=0;recursiveResize=0;expand=0;fontStyle=0;strokeColor=inherit;fillColor=#ffffff;" parent="0Ellkbo9NkKinEL8UdBw-16" vertex="1">
          <mxGeometry width="470" height="38" as="geometry" />
        </mxCell>
        <mxCell id="0Ellkbo9NkKinEL8UdBw-18" value="&lt;font style=&quot;font-size: 14px;&quot;&gt;ID&lt;/font&gt;" style="connectable=0;recursiveResize=0;align=center;fontStyle=1;html=1;" parent="0Ellkbo9NkKinEL8UdBw-17" vertex="1">
          <mxGeometry width="85" height="38" as="geometry">
            <mxRectangle width="85" height="38" as="alternateBounds" />
          </mxGeometry>
        </mxCell>
        <mxCell id="0Ellkbo9NkKinEL8UdBw-19" value="&lt;font style=&quot;font-size: 14px;&quot;&gt;category&lt;/font&gt;" style="connectable=0;recursiveResize=0;align=center;fontStyle=1;html=1;" parent="0Ellkbo9NkKinEL8UdBw-17" vertex="1">
          <mxGeometry x="85" width="197" height="38" as="geometry">
            <mxRectangle width="197" height="38" as="alternateBounds" />
          </mxGeometry>
        </mxCell>
        <mxCell id="0Ellkbo9NkKinEL8UdBw-20" value="&lt;font style=&quot;font-size: 14px;&quot; face=&quot;Helvetica&quot;&gt;category_url&lt;/font&gt;" style="connectable=0;recursiveResize=0;align=center;fontStyle=1;html=1;" parent="0Ellkbo9NkKinEL8UdBw-17" vertex="1">
          <mxGeometry x="282" width="188" height="38" as="geometry">
            <mxRectangle width="188" height="38" as="alternateBounds" />
          </mxGeometry>
        </mxCell>
        <mxCell id="0Ellkbo9NkKinEL8UdBw-21" value="" style="shape=tableRow;horizontal=0;startSize=0;swimlaneHead=0;swimlaneBody=0;top=0;left=0;bottom=0;right=0;dropTarget=0;collapsible=0;recursiveResize=0;expand=0;fontStyle=0;strokeColor=inherit;fillColor=#ffffff;" parent="0Ellkbo9NkKinEL8UdBw-16" vertex="1">
          <mxGeometry y="38" width="470" height="38" as="geometry" />
        </mxCell>
        <mxCell id="0Ellkbo9NkKinEL8UdBw-22" value="0" style="connectable=0;recursiveResize=0;strokeColor=inherit;fillColor=inherit;align=center;whiteSpace=wrap;html=1;" parent="0Ellkbo9NkKinEL8UdBw-21" vertex="1">
          <mxGeometry width="85" height="38" as="geometry">
            <mxRectangle width="85" height="38" as="alternateBounds" />
          </mxGeometry>
        </mxCell>
        <mxCell id="0Ellkbo9NkKinEL8UdBw-23" value="&lt;span style=&quot;font-size: 13px; font-family: &amp;quot;Helvetica Neue&amp;quot;, Helvetica, Arial, sans-serif; text-align: start;&quot;&gt;Cafeteras de goteo&lt;/span&gt;" style="connectable=0;recursiveResize=0;strokeColor=inherit;fillColor=inherit;align=center;whiteSpace=wrap;html=1;" parent="0Ellkbo9NkKinEL8UdBw-21" vertex="1">
          <mxGeometry x="85" width="197" height="38" as="geometry">
            <mxRectangle width="197" height="38" as="alternateBounds" />
          </mxGeometry>
        </mxCell>
        <mxCell id="0Ellkbo9NkKinEL8UdBw-24" value="https://www.amazon.es..." style="connectable=0;recursiveResize=0;strokeColor=inherit;fillColor=inherit;align=center;whiteSpace=wrap;html=1;" parent="0Ellkbo9NkKinEL8UdBw-21" vertex="1">
          <mxGeometry x="282" width="188" height="38" as="geometry">
            <mxRectangle width="188" height="38" as="alternateBounds" />
          </mxGeometry>
        </mxCell>
        <mxCell id="0Ellkbo9NkKinEL8UdBw-25" value="" style="shape=tableRow;horizontal=0;startSize=0;swimlaneHead=0;swimlaneBody=0;top=0;left=0;bottom=0;right=0;dropTarget=0;collapsible=0;recursiveResize=0;expand=0;fontStyle=1;strokeColor=inherit;fillColor=#EAF2D3;" parent="0Ellkbo9NkKinEL8UdBw-16" vertex="1">
          <mxGeometry y="76" width="470" height="36" as="geometry" />
        </mxCell>
        <mxCell id="0Ellkbo9NkKinEL8UdBw-26" value="1" style="connectable=0;recursiveResize=0;whiteSpace=wrap;html=1;" parent="0Ellkbo9NkKinEL8UdBw-25" vertex="1">
          <mxGeometry width="85" height="36" as="geometry">
            <mxRectangle width="85" height="36" as="alternateBounds" />
          </mxGeometry>
        </mxCell>
        <mxCell id="0Ellkbo9NkKinEL8UdBw-27" value="Cafeteras automÃ¡ticas" style="connectable=0;recursiveResize=0;whiteSpace=wrap;html=1;" parent="0Ellkbo9NkKinEL8UdBw-25" vertex="1">
          <mxGeometry x="85" width="197" height="36" as="geometry">
            <mxRectangle width="197" height="36" as="alternateBounds" />
          </mxGeometry>
        </mxCell>
        <mxCell id="0Ellkbo9NkKinEL8UdBw-28" value="https://www.amazon.es..." style="connectable=0;recursiveResize=0;whiteSpace=wrap;html=1;" parent="0Ellkbo9NkKinEL8UdBw-25" vertex="1">
          <mxGeometry x="282" width="188" height="36" as="geometry">
            <mxRectangle width="188" height="36" as="alternateBounds" />
          </mxGeometry>
        </mxCell>
        <mxCell id="0Ellkbo9NkKinEL8UdBw-29" value="" style="shape=tableRow;horizontal=0;startSize=0;swimlaneHead=0;swimlaneBody=0;top=0;left=0;bottom=0;right=0;dropTarget=0;collapsible=0;recursiveResize=0;expand=0;fontStyle=0;strokeColor=inherit;fillColor=#ffffff;" parent="0Ellkbo9NkKinEL8UdBw-16" vertex="1">
          <mxGeometry y="112" width="470" height="38" as="geometry" />
        </mxCell>
        <mxCell id="0Ellkbo9NkKinEL8UdBw-30" value="2" style="connectable=0;recursiveResize=0;strokeColor=inherit;fillColor=inherit;fontStyle=0;align=center;whiteSpace=wrap;html=1;" parent="0Ellkbo9NkKinEL8UdBw-29" vertex="1">
          <mxGeometry width="85" height="38" as="geometry">
            <mxRectangle width="85" height="38" as="alternateBounds" />
          </mxGeometry>
        </mxCell>
        <mxCell id="0Ellkbo9NkKinEL8UdBw-31" value="Cafeteras individuales" style="connectable=0;recursiveResize=0;strokeColor=inherit;fillColor=inherit;fontStyle=0;align=center;whiteSpace=wrap;html=1;" parent="0Ellkbo9NkKinEL8UdBw-29" vertex="1">
          <mxGeometry x="85" width="197" height="38" as="geometry">
            <mxRectangle width="197" height="38" as="alternateBounds" />
          </mxGeometry>
        </mxCell>
        <mxCell id="0Ellkbo9NkKinEL8UdBw-32" value="https://www.amazon.es..." style="connectable=0;recursiveResize=0;strokeColor=inherit;fillColor=inherit;fontStyle=0;align=center;whiteSpace=wrap;html=1;" parent="0Ellkbo9NkKinEL8UdBw-29" vertex="1">
          <mxGeometry x="282" width="188" height="38" as="geometry">
            <mxRectangle width="188" height="38" as="alternateBounds" />
          </mxGeometry>
        </mxCell>
        <mxCell id="0Ellkbo9NkKinEL8UdBw-62" style="edgeStyle=orthogonalEdgeStyle;html=1;labelBackgroundColor=none;startFill=0;startSize=8;endFill=1;endSize=8;fontFamily=Verdana;fontSize=12;entryX=0.5;entryY=0;entryDx=0;entryDy=0;exitX=0;exitY=0.5;exitDx=0;exitDy=0;" parent="1" edge="1">
          <mxGeometry relative="1" as="geometry">
            <mxPoint x="290" y="-57" as="sourcePoint" />
            <mxPoint x="115" y="41.99999999999977" as="targetPoint" />
          </mxGeometry>
        </mxCell>
        <mxCell id="0Ellkbo9NkKinEL8UdBw-67" value="&lt;font style=&quot;font-size: 14px;&quot;&gt;0.csv&lt;/font&gt;" style="swimlane;html=1;fontStyle=0;childLayout=stackLayout;horizontal=1;startSize=26;fillColor=#e0e0e0;horizontalStack=0;resizeParent=1;resizeLast=0;collapsible=1;marginBottom=0;swimlaneFillColor=#ffffff;align=center;rounded=1;shadow=0;comic=0;labelBackgroundColor=none;strokeWidth=1;fontFamily=Verdana;fontSize=12" parent="1" vertex="1">
          <mxGeometry x="-85" y="-460" width="400" height="212" as="geometry" />
        </mxCell>
        <mxCell id="0Ellkbo9NkKinEL8UdBw-68" value="Assets" style="childLayout=tableLayout;recursiveResize=0;shadow=1;" parent="0Ellkbo9NkKinEL8UdBw-67" vertex="1">
          <mxGeometry y="26" width="400" height="186" as="geometry" />
        </mxCell>
        <mxCell id="0Ellkbo9NkKinEL8UdBw-69" style="shape=tableRow;horizontal=0;startSize=0;swimlaneHead=0;swimlaneBody=0;top=0;left=0;bottom=0;right=0;dropTarget=0;collapsible=0;recursiveResize=0;expand=0;fontStyle=0;strokeColor=inherit;fillColor=#ffffff;" parent="0Ellkbo9NkKinEL8UdBw-68" vertex="1">
          <mxGeometry width="400" height="37" as="geometry" />
        </mxCell>
        <mxCell id="0Ellkbo9NkKinEL8UdBw-70" value="&lt;font style=&quot;font-size: 14px;&quot;&gt;ID&lt;/font&gt;" style="connectable=0;recursiveResize=0;align=center;fontStyle=1;html=1;" parent="0Ellkbo9NkKinEL8UdBw-69" vertex="1">
          <mxGeometry width="90" height="37" as="geometry">
            <mxRectangle width="90" height="37" as="alternateBounds" />
          </mxGeometry>
        </mxCell>
        <mxCell id="0Ellkbo9NkKinEL8UdBw-71" value="&lt;font style=&quot;font-size: 14px;&quot;&gt;goods_url&lt;/font&gt;" style="connectable=0;recursiveResize=0;align=center;fontStyle=1;html=1;" parent="0Ellkbo9NkKinEL8UdBw-69" vertex="1">
          <mxGeometry x="90" width="155" height="37" as="geometry">
            <mxRectangle width="155" height="37" as="alternateBounds" />
          </mxGeometry>
        </mxCell>
        <mxCell id="3wNGQiV5R0WnUlMMZM8s-1" value="&lt;font style=&quot;font-size: 14px;&quot;&gt;reviews_url&lt;/font&gt;" style="connectable=0;recursiveResize=0;align=center;fontStyle=1;html=1;" vertex="1" parent="0Ellkbo9NkKinEL8UdBw-69">
          <mxGeometry x="245" width="155" height="37" as="geometry">
            <mxRectangle width="155" height="37" as="alternateBounds" />
          </mxGeometry>
        </mxCell>
        <mxCell id="0Ellkbo9NkKinEL8UdBw-72" value="" style="shape=tableRow;horizontal=0;startSize=0;swimlaneHead=0;swimlaneBody=0;top=0;left=0;bottom=0;right=0;dropTarget=0;collapsible=0;recursiveResize=0;expand=0;fontStyle=0;strokeColor=inherit;fillColor=#ffffff;" parent="0Ellkbo9NkKinEL8UdBw-68" vertex="1">
          <mxGeometry y="37" width="400" height="37" as="geometry" />
        </mxCell>
        <mxCell id="0Ellkbo9NkKinEL8UdBw-73" value="0-000000" style="connectable=0;recursiveResize=0;strokeColor=inherit;fillColor=inherit;align=center;whiteSpace=wrap;html=1;" parent="0Ellkbo9NkKinEL8UdBw-72" vertex="1">
          <mxGeometry width="90" height="37" as="geometry">
            <mxRectangle width="90" height="37" as="alternateBounds" />
          </mxGeometry>
        </mxCell>
        <mxCell id="0Ellkbo9NkKinEL8UdBw-74" value="https://www.amazon.es..." style="connectable=0;recursiveResize=0;strokeColor=inherit;fillColor=inherit;align=center;whiteSpace=wrap;html=1;" parent="0Ellkbo9NkKinEL8UdBw-72" vertex="1">
          <mxGeometry x="90" width="155" height="37" as="geometry">
            <mxRectangle width="155" height="37" as="alternateBounds" />
          </mxGeometry>
        </mxCell>
        <mxCell id="3wNGQiV5R0WnUlMMZM8s-2" value="https://www.amazon.es..." style="connectable=0;recursiveResize=0;strokeColor=inherit;fillColor=inherit;align=center;whiteSpace=wrap;html=1;" vertex="1" parent="0Ellkbo9NkKinEL8UdBw-72">
          <mxGeometry x="245" width="155" height="37" as="geometry">
            <mxRectangle width="155" height="37" as="alternateBounds" />
          </mxGeometry>
        </mxCell>
        <mxCell id="0Ellkbo9NkKinEL8UdBw-75" value="" style="shape=tableRow;horizontal=0;startSize=0;swimlaneHead=0;swimlaneBody=0;top=0;left=0;bottom=0;right=0;dropTarget=0;collapsible=0;recursiveResize=0;expand=0;fontStyle=1;strokeColor=inherit;fillColor=#EAF2D3;" parent="0Ellkbo9NkKinEL8UdBw-68" vertex="1">
          <mxGeometry y="74" width="400" height="38" as="geometry" />
        </mxCell>
        <mxCell id="0Ellkbo9NkKinEL8UdBw-76" value="0-000001" style="connectable=0;recursiveResize=0;whiteSpace=wrap;html=1;" parent="0Ellkbo9NkKinEL8UdBw-75" vertex="1">
          <mxGeometry width="90" height="38" as="geometry">
            <mxRectangle width="90" height="38" as="alternateBounds" />
          </mxGeometry>
        </mxCell>
        <mxCell id="0Ellkbo9NkKinEL8UdBw-77" value="https://www.amazon.es..." style="connectable=0;recursiveResize=0;whiteSpace=wrap;html=1;" parent="0Ellkbo9NkKinEL8UdBw-75" vertex="1">
          <mxGeometry x="90" width="155" height="38" as="geometry">
            <mxRectangle width="155" height="38" as="alternateBounds" />
          </mxGeometry>
        </mxCell>
        <mxCell id="3wNGQiV5R0WnUlMMZM8s-3" value="https://www.amazon.es..." style="connectable=0;recursiveResize=0;whiteSpace=wrap;html=1;" vertex="1" parent="0Ellkbo9NkKinEL8UdBw-75">
          <mxGeometry x="245" width="155" height="38" as="geometry">
            <mxRectangle width="155" height="38" as="alternateBounds" />
          </mxGeometry>
        </mxCell>
        <mxCell id="0Ellkbo9NkKinEL8UdBw-78" value="" style="shape=tableRow;horizontal=0;startSize=0;swimlaneHead=0;swimlaneBody=0;top=0;left=0;bottom=0;right=0;dropTarget=0;collapsible=0;recursiveResize=0;expand=0;fontStyle=0;strokeColor=inherit;fillColor=#ffffff;" parent="0Ellkbo9NkKinEL8UdBw-68" vertex="1">
          <mxGeometry y="112" width="400" height="37" as="geometry" />
        </mxCell>
        <mxCell id="0Ellkbo9NkKinEL8UdBw-79" value="0-000002" style="connectable=0;recursiveResize=0;strokeColor=inherit;fillColor=inherit;fontStyle=0;align=center;whiteSpace=wrap;html=1;" parent="0Ellkbo9NkKinEL8UdBw-78" vertex="1">
          <mxGeometry width="90" height="37" as="geometry">
            <mxRectangle width="90" height="37" as="alternateBounds" />
          </mxGeometry>
        </mxCell>
        <mxCell id="0Ellkbo9NkKinEL8UdBw-80" value="https://www.amazon.es..." style="connectable=0;recursiveResize=0;strokeColor=inherit;fillColor=inherit;fontStyle=0;align=center;whiteSpace=wrap;html=1;" parent="0Ellkbo9NkKinEL8UdBw-78" vertex="1">
          <mxGeometry x="90" width="155" height="37" as="geometry">
            <mxRectangle width="155" height="37" as="alternateBounds" />
          </mxGeometry>
        </mxCell>
        <mxCell id="3wNGQiV5R0WnUlMMZM8s-4" value="https://www.amazon.es..." style="connectable=0;recursiveResize=0;strokeColor=inherit;fillColor=inherit;fontStyle=0;align=center;whiteSpace=wrap;html=1;" vertex="1" parent="0Ellkbo9NkKinEL8UdBw-78">
          <mxGeometry x="245" width="155" height="37" as="geometry">
            <mxRectangle width="155" height="37" as="alternateBounds" />
          </mxGeometry>
        </mxCell>
        <mxCell id="0Ellkbo9NkKinEL8UdBw-81" style="shape=tableRow;horizontal=0;startSize=0;swimlaneHead=0;swimlaneBody=0;top=0;left=0;bottom=0;right=0;dropTarget=0;collapsible=0;recursiveResize=0;expand=0;fontStyle=0;strokeColor=inherit;fillColor=#ffffff;" parent="0Ellkbo9NkKinEL8UdBw-68" vertex="1">
          <mxGeometry y="149" width="400" height="37" as="geometry" />
        </mxCell>
        <mxCell id="0Ellkbo9NkKinEL8UdBw-82" style="connectable=0;recursiveResize=0;strokeColor=inherit;fillColor=inherit;fontStyle=0;align=center;whiteSpace=wrap;html=1;" parent="0Ellkbo9NkKinEL8UdBw-81" vertex="1">
          <mxGeometry width="90" height="37" as="geometry">
            <mxRectangle width="90" height="37" as="alternateBounds" />
          </mxGeometry>
        </mxCell>
        <mxCell id="0Ellkbo9NkKinEL8UdBw-83" style="connectable=0;recursiveResize=0;strokeColor=inherit;fillColor=inherit;fontStyle=0;align=center;whiteSpace=wrap;html=1;" parent="0Ellkbo9NkKinEL8UdBw-81" vertex="1">
          <mxGeometry x="90" width="155" height="37" as="geometry">
            <mxRectangle width="155" height="37" as="alternateBounds" />
          </mxGeometry>
        </mxCell>
        <mxCell id="3wNGQiV5R0WnUlMMZM8s-5" style="connectable=0;recursiveResize=0;strokeColor=inherit;fillColor=inherit;fontStyle=0;align=center;whiteSpace=wrap;html=1;" vertex="1" parent="0Ellkbo9NkKinEL8UdBw-81">
          <mxGeometry x="245" width="155" height="37" as="geometry">
            <mxRectangle width="155" height="37" as="alternateBounds" />
          </mxGeometry>
        </mxCell>
        <mxCell id="0Ellkbo9NkKinEL8UdBw-126" style="edgeStyle=orthogonalEdgeStyle;html=1;labelBackgroundColor=none;startFill=0;startSize=8;endFill=1;endSize=8;fontFamily=Verdana;fontSize=12;exitX=0;exitY=0.5;exitDx=0;exitDy=0;" parent="1" source="0Ellkbo9NkKinEL8UdBw-25" edge="1">
          <mxGeometry relative="1" as="geometry">
            <mxPoint x="280" y="-100" as="sourcePoint" />
            <mxPoint x="-40" y="-96" as="targetPoint" />
          </mxGeometry>
        </mxCell>
        <mxCell id="0Ellkbo9NkKinEL8UdBw-131" value="" style="endArrow=classic;html=1;rounded=0;exitX=0;exitY=0.5;exitDx=0;exitDy=0;" parent="1" edge="1">
          <mxGeometry width="50" height="50" relative="1" as="geometry">
            <mxPoint x="-85" y="-340" as="sourcePoint" />
            <mxPoint x="-195" y="-340" as="targetPoint" />
          </mxGeometry>
        </mxCell>
        <mxCell id="0Ellkbo9NkKinEL8UdBw-132" value="" style="endArrow=classic;html=1;rounded=0;exitX=0;exitY=0.5;exitDx=0;exitDy=0;" parent="1" edge="1">
          <mxGeometry width="50" height="50" relative="1" as="geometry">
            <mxPoint x="-85" y="-300" as="sourcePoint" />
            <mxPoint x="-195" y="-300" as="targetPoint" />
          </mxGeometry>
        </mxCell>
        <mxCell id="0Ellkbo9NkKinEL8UdBw-133" style="edgeStyle=orthogonalEdgeStyle;html=1;labelBackgroundColor=none;startFill=0;startSize=8;endFill=1;endSize=8;fontFamily=Verdana;fontSize=12;exitX=0;exitY=0.5;exitDx=0;exitDy=0;entryX=0.5;entryY=0;entryDx=0;entryDy=0;" parent="1" edge="1">
          <mxGeometry relative="1" as="geometry">
            <mxPoint x="-85" y="120" as="sourcePoint" />
            <mxPoint x="-155" y="350" as="targetPoint" />
            <Array as="points">
              <mxPoint x="-155" y="121.07" />
            </Array>
          </mxGeometry>
        </mxCell>
        <mxCell id="0Ellkbo9NkKinEL8UdBw-134" value="&lt;font style=&quot;font-size: 14px;&quot;&gt;2-000000.csv&lt;/font&gt;" style="swimlane;html=1;fontStyle=0;childLayout=stackLayout;horizontal=1;startSize=26;fillColor=#e0e0e0;horizontalStack=0;resizeParent=1;resizeLast=0;collapsible=1;marginBottom=0;swimlaneFillColor=#ffffff;align=center;rounded=1;shadow=0;comic=0;labelBackgroundColor=none;strokeWidth=1;fontFamily=Verdana;fontSize=12" parent="1" vertex="1">
          <mxGeometry x="-654" y="350" width="1000" height="268" as="geometry" />
        </mxCell>
        <mxCell id="0Ellkbo9NkKinEL8UdBw-135" value="Assets" style="childLayout=tableLayout;recursiveResize=0;shadow=1;" parent="0Ellkbo9NkKinEL8UdBw-134" vertex="1">
          <mxGeometry y="26" width="1000" height="238" as="geometry" />
        </mxCell>
        <mxCell id="0Ellkbo9NkKinEL8UdBw-136" style="shape=tableRow;horizontal=0;startSize=0;swimlaneHead=0;swimlaneBody=0;top=0;left=0;bottom=0;right=0;dropTarget=0;collapsible=0;recursiveResize=0;expand=0;fontStyle=0;strokeColor=inherit;fillColor=#ffffff;" parent="0Ellkbo9NkKinEL8UdBw-135" vertex="1">
          <mxGeometry width="1000" height="47" as="geometry" />
        </mxCell>
        <mxCell id="0Ellkbo9NkKinEL8UdBw-137" value="&lt;font style=&quot;font-size: 14px;&quot;&gt;ID&lt;/font&gt;" style="connectable=0;recursiveResize=0;align=center;fontStyle=1;html=1;" parent="0Ellkbo9NkKinEL8UdBw-136" vertex="1">
          <mxGeometry width="144" height="47" as="geometry">
            <mxRectangle width="144" height="47" as="alternateBounds" />
          </mxGeometry>
        </mxCell>
        <mxCell id="0Ellkbo9NkKinEL8UdBw-138" value="&lt;font style=&quot;font-size: 14px;&quot;&gt;title&lt;/font&gt;" style="connectable=0;recursiveResize=0;align=center;fontStyle=1;html=1;" parent="0Ellkbo9NkKinEL8UdBw-136" vertex="1">
          <mxGeometry x="144" width="146" height="47" as="geometry">
            <mxRectangle width="146" height="47" as="alternateBounds" />
          </mxGeometry>
        </mxCell>
        <mxCell id="0Ellkbo9NkKinEL8UdBw-151" value="&lt;font style=&quot;font-size: 14px;&quot;&gt;rating&lt;/font&gt;" style="connectable=0;recursiveResize=0;align=center;fontStyle=1;html=1;" parent="0Ellkbo9NkKinEL8UdBw-136" vertex="1">
          <mxGeometry x="290" width="140" height="47" as="geometry">
            <mxRectangle width="140" height="47" as="alternateBounds" />
          </mxGeometry>
        </mxCell>
        <mxCell id="0Ellkbo9NkKinEL8UdBw-167" value="&lt;font style=&quot;font-size: 14px;&quot;&gt;body&lt;/font&gt;" style="connectable=0;recursiveResize=0;align=center;fontStyle=1;html=1;" parent="0Ellkbo9NkKinEL8UdBw-136" vertex="1">
          <mxGeometry x="430" width="260" height="47" as="geometry">
            <mxRectangle width="260" height="47" as="alternateBounds" />
          </mxGeometry>
        </mxCell>
        <mxCell id="0Ellkbo9NkKinEL8UdBw-162" value="&lt;font style=&quot;font-size: 14px;&quot;&gt;author&lt;/font&gt;" style="connectable=0;recursiveResize=0;align=center;fontStyle=1;html=1;" parent="0Ellkbo9NkKinEL8UdBw-136" vertex="1">
          <mxGeometry x="690" width="140" height="47" as="geometry">
            <mxRectangle width="140" height="47" as="alternateBounds" />
          </mxGeometry>
        </mxCell>
        <mxCell id="0Ellkbo9NkKinEL8UdBw-157" value="&lt;font style=&quot;font-size: 14px;&quot;&gt;date&lt;/font&gt;" style="connectable=0;recursiveResize=0;align=center;fontStyle=1;html=1;" parent="0Ellkbo9NkKinEL8UdBw-136" vertex="1">
          <mxGeometry x="830" width="170" height="47" as="geometry">
            <mxRectangle width="170" height="47" as="alternateBounds" />
          </mxGeometry>
        </mxCell>
        <mxCell id="0Ellkbo9NkKinEL8UdBw-139" value="" style="shape=tableRow;horizontal=0;startSize=0;swimlaneHead=0;swimlaneBody=0;top=0;left=0;bottom=0;right=0;dropTarget=0;collapsible=0;recursiveResize=0;expand=0;fontStyle=0;strokeColor=inherit;fillColor=#ffffff;" parent="0Ellkbo9NkKinEL8UdBw-135" vertex="1">
          <mxGeometry y="47" width="1000" height="47" as="geometry" />
        </mxCell>
        <mxCell id="0Ellkbo9NkKinEL8UdBw-140" value="0" style="connectable=0;recursiveResize=0;strokeColor=inherit;fillColor=inherit;align=center;whiteSpace=wrap;html=1;" parent="0Ellkbo9NkKinEL8UdBw-139" vertex="1">
          <mxGeometry width="144" height="47" as="geometry">
            <mxRectangle width="144" height="47" as="alternateBounds" />
          </mxGeometry>
        </mxCell>
        <mxCell id="0Ellkbo9NkKinEL8UdBw-141" value="Perfecta!" style="connectable=0;recursiveResize=0;strokeColor=inherit;fillColor=inherit;align=center;whiteSpace=wrap;html=1;" parent="0Ellkbo9NkKinEL8UdBw-139" vertex="1">
          <mxGeometry x="144" width="146" height="47" as="geometry">
            <mxRectangle width="146" height="47" as="alternateBounds" />
          </mxGeometry>
        </mxCell>
        <mxCell id="0Ellkbo9NkKinEL8UdBw-152" value="&lt;p style=&quot;margin: 0px; font-style: normal; font-variant-caps: normal; font-stretch: normal; line-height: normal; font-family: &amp;quot;Helvetica Neue&amp;quot;; font-size-adjust: none; font-kerning: auto; font-variant-alternates: normal; font-variant-ligatures: normal; font-variant-numeric: normal; font-variant-east-asian: normal; font-variant-position: normal; font-feature-settings: normal; font-optical-sizing: auto; font-variation-settings: normal;&quot;&gt;5,0 de 5 estrellas&lt;/p&gt;" style="connectable=0;recursiveResize=0;strokeColor=inherit;fillColor=inherit;align=center;whiteSpace=wrap;html=1;" parent="0Ellkbo9NkKinEL8UdBw-139" vertex="1">
          <mxGeometry x="290" width="140" height="47" as="geometry">
            <mxRectangle width="140" height="47" as="alternateBounds" />
          </mxGeometry>
        </mxCell>
        <mxCell id="0Ellkbo9NkKinEL8UdBw-168" value="&lt;p style=&quot;margin: 0px; font-style: normal; font-variant-caps: normal; font-stretch: normal; line-height: normal; font-family: &amp;quot;Helvetica Neue&amp;quot;; font-size-adjust: none; font-kerning: auto; font-variant-alternates: normal; font-variant-ligatures: normal; font-variant-numeric: normal; font-variant-east-asian: normal; font-variant-position: normal; font-feature-settings: normal; font-optical-sizing: auto; font-variation-settings: normal;&quot;&gt;&lt;font style=&quot;font-size: 12px;&quot;&gt;Me encanta hacer cafÃ© con esta mÃ¡quina.&amp;nbsp;&lt;/font&gt;&lt;/p&gt;" style="connectable=0;recursiveResize=0;strokeColor=inherit;fillColor=inherit;align=center;whiteSpace=wrap;html=1;" parent="0Ellkbo9NkKinEL8UdBw-139" vertex="1">
          <mxGeometry x="430" width="260" height="47" as="geometry">
            <mxRectangle width="260" height="47" as="alternateBounds" />
          </mxGeometry>
        </mxCell>
        <mxCell id="0Ellkbo9NkKinEL8UdBw-163" value="&lt;p style=&quot;text-align: start; margin: 0px;&quot;&gt;&lt;font style=&quot;font-stretch: normal; font-size: 12px; line-height: normal; font-family: &amp;quot;Helvetica Neue&amp;quot;; font-size-adjust: none; font-kerning: auto; font-variant-alternates: normal; font-variant-numeric: normal; font-variant-east-asian: normal; font-variant-position: normal; font-feature-settings: normal; font-optical-sizing: auto; font-variation-settings: normal; font-variant-ligatures: common-ligatures;&quot; color=&quot;#000000&quot; face=&quot;Helvetica Neue&quot;&gt;RamÃ³n Torres&lt;/font&gt;&lt;/p&gt;" style="connectable=0;recursiveResize=0;strokeColor=inherit;fillColor=inherit;align=center;whiteSpace=wrap;html=1;" parent="0Ellkbo9NkKinEL8UdBw-139" vertex="1">
          <mxGeometry x="690" width="140" height="47" as="geometry">
            <mxRectangle width="140" height="47" as="alternateBounds" />
          </mxGeometry>
        </mxCell>
        <mxCell id="0Ellkbo9NkKinEL8UdBw-158" value="&lt;p style=&quot;margin: 0px; font-style: normal; font-variant-caps: normal; font-stretch: normal; line-height: normal; font-family: &amp;quot;Helvetica Neue&amp;quot;; font-size-adjust: none; font-kerning: auto; font-variant-alternates: normal; font-variant-ligatures: normal; font-variant-numeric: normal; font-variant-east-asian: normal; font-variant-position: normal; font-feature-settings: normal; font-optical-sizing: auto; font-variation-settings: normal;&quot;&gt;Revisado en EspaÃ±a el 13 de julio de 2024&lt;/p&gt;" style="connectable=0;recursiveResize=0;strokeColor=inherit;fillColor=inherit;align=center;whiteSpace=wrap;html=1;" parent="0Ellkbo9NkKinEL8UdBw-139" vertex="1">
          <mxGeometry x="830" width="170" height="47" as="geometry">
            <mxRectangle width="170" height="47" as="alternateBounds" />
          </mxGeometry>
        </mxCell>
        <mxCell id="0Ellkbo9NkKinEL8UdBw-142" value="" style="shape=tableRow;horizontal=0;startSize=0;swimlaneHead=0;swimlaneBody=0;top=0;left=0;bottom=0;right=0;dropTarget=0;collapsible=0;recursiveResize=0;expand=0;fontStyle=1;strokeColor=inherit;fillColor=#EAF2D3;" parent="0Ellkbo9NkKinEL8UdBw-135" vertex="1">
          <mxGeometry y="94" width="1000" height="50" as="geometry" />
        </mxCell>
        <mxCell id="0Ellkbo9NkKinEL8UdBw-143" value="1" style="connectable=0;recursiveResize=0;whiteSpace=wrap;html=1;" parent="0Ellkbo9NkKinEL8UdBw-142" vertex="1">
          <mxGeometry width="144" height="50" as="geometry">
            <mxRectangle width="144" height="50" as="alternateBounds" />
          </mxGeometry>
        </mxCell>
        <mxCell id="0Ellkbo9NkKinEL8UdBw-144" value="Bien." style="connectable=0;recursiveResize=0;whiteSpace=wrap;html=1;" parent="0Ellkbo9NkKinEL8UdBw-142" vertex="1">
          <mxGeometry x="144" width="146" height="50" as="geometry">
            <mxRectangle width="146" height="50" as="alternateBounds" />
          </mxGeometry>
        </mxCell>
        <mxCell id="0Ellkbo9NkKinEL8UdBw-153" value="&lt;p style=&quot;margin: 0px; font-style: normal; font-variant-caps: normal; font-stretch: normal; line-height: normal; font-family: &amp;quot;Helvetica Neue&amp;quot;; font-size-adjust: none; font-kerning: auto; font-variant-alternates: normal; font-variant-ligatures: normal; font-variant-numeric: normal; font-variant-east-asian: normal; font-variant-position: normal; font-feature-settings: normal; font-optical-sizing: auto; font-variation-settings: normal;&quot;&gt;4,0 de 5 estrellas&lt;/p&gt;" style="connectable=0;recursiveResize=0;whiteSpace=wrap;html=1;" parent="0Ellkbo9NkKinEL8UdBw-142" vertex="1">
          <mxGeometry x="290" width="140" height="50" as="geometry">
            <mxRectangle width="140" height="50" as="alternateBounds" />
          </mxGeometry>
        </mxCell>
        <mxCell id="0Ellkbo9NkKinEL8UdBw-169" value="&lt;p style=&quot;margin: 0px; font-style: normal; font-variant-caps: normal; font-stretch: normal; line-height: normal; font-family: &amp;quot;Helvetica Neue&amp;quot;; font-size-adjust: none; font-kerning: auto; font-variant-alternates: normal; font-variant-ligatures: normal; font-variant-numeric: normal; font-variant-east-asian: normal; font-variant-position: normal; font-feature-settings: normal; font-optical-sizing: auto; font-variation-settings: normal;&quot;&gt;&lt;font style=&quot;font-size: 12px;&quot;&gt;De momento biÃ©n cafÃ© delicioso&lt;/font&gt;&lt;/p&gt;" style="connectable=0;recursiveResize=0;whiteSpace=wrap;html=1;" parent="0Ellkbo9NkKinEL8UdBw-142" vertex="1">
          <mxGeometry x="430" width="260" height="50" as="geometry">
            <mxRectangle width="260" height="50" as="alternateBounds" />
          </mxGeometry>
        </mxCell>
        <mxCell id="0Ellkbo9NkKinEL8UdBw-164" value="&lt;p style=&quot;margin: 0px; font-style: normal; font-variant-caps: normal; font-stretch: normal; line-height: normal; font-family: &amp;quot;Helvetica Neue&amp;quot;; font-size-adjust: none; font-kerning: auto; font-variant-alternates: normal; font-variant-ligatures: normal; font-variant-numeric: normal; font-variant-east-asian: normal; font-variant-position: normal; font-feature-settings: normal; font-optical-sizing: auto; font-variation-settings: normal;&quot;&gt;Lorena&lt;/p&gt;" style="connectable=0;recursiveResize=0;whiteSpace=wrap;html=1;" parent="0Ellkbo9NkKinEL8UdBw-142" vertex="1">
          <mxGeometry x="690" width="140" height="50" as="geometry">
            <mxRectangle width="140" height="50" as="alternateBounds" />
          </mxGeometry>
        </mxCell>
        <mxCell id="0Ellkbo9NkKinEL8UdBw-159" value="&lt;p style=&quot;margin: 0px; font-style: normal; font-variant-caps: normal; font-stretch: normal; line-height: normal; font-family: &amp;quot;Helvetica Neue&amp;quot;; font-size-adjust: none; font-kerning: auto; font-variant-alternates: normal; font-variant-ligatures: normal; font-variant-numeric: normal; font-variant-east-asian: normal; font-variant-position: normal; font-feature-settings: normal; font-optical-sizing: auto; font-variation-settings: normal;&quot;&gt;Revisado en EspaÃ±a el 8 de enero de 2024&lt;/p&gt;" style="connectable=0;recursiveResize=0;whiteSpace=wrap;html=1;" parent="0Ellkbo9NkKinEL8UdBw-142" vertex="1">
          <mxGeometry x="830" width="170" height="50" as="geometry">
            <mxRectangle width="170" height="50" as="alternateBounds" />
          </mxGeometry>
        </mxCell>
        <mxCell id="0Ellkbo9NkKinEL8UdBw-145" value="" style="shape=tableRow;horizontal=0;startSize=0;swimlaneHead=0;swimlaneBody=0;top=0;left=0;bottom=0;right=0;dropTarget=0;collapsible=0;recursiveResize=0;expand=0;fontStyle=0;strokeColor=inherit;fillColor=#ffffff;" parent="0Ellkbo9NkKinEL8UdBw-135" vertex="1">
          <mxGeometry y="144" width="1000" height="47" as="geometry" />
        </mxCell>
        <mxCell id="0Ellkbo9NkKinEL8UdBw-146" value="2" style="connectable=0;recursiveResize=0;strokeColor=inherit;fillColor=inherit;fontStyle=0;align=center;whiteSpace=wrap;html=1;" parent="0Ellkbo9NkKinEL8UdBw-145" vertex="1">
          <mxGeometry width="144" height="47" as="geometry">
            <mxRectangle width="144" height="47" as="alternateBounds" />
          </mxGeometry>
        </mxCell>
        <mxCell id="0Ellkbo9NkKinEL8UdBw-147" value="Mala calidad" style="connectable=0;recursiveResize=0;strokeColor=inherit;fillColor=inherit;fontStyle=0;align=center;whiteSpace=wrap;html=1;" parent="0Ellkbo9NkKinEL8UdBw-145" vertex="1">
          <mxGeometry x="144" width="146" height="47" as="geometry">
            <mxRectangle width="146" height="47" as="alternateBounds" />
          </mxGeometry>
        </mxCell>
        <mxCell id="0Ellkbo9NkKinEL8UdBw-154" value="&lt;p style=&quot;margin: 0px; font-style: normal; font-variant-caps: normal; font-stretch: normal; line-height: normal; font-family: &amp;quot;Helvetica Neue&amp;quot;; font-size-adjust: none; font-kerning: auto; font-variant-alternates: normal; font-variant-ligatures: normal; font-variant-numeric: normal; font-variant-east-asian: normal; font-variant-position: normal; font-feature-settings: normal; font-optical-sizing: auto; font-variation-settings: normal;&quot;&gt;3,0 de 5 estrellas&lt;/p&gt;" style="connectable=0;recursiveResize=0;strokeColor=inherit;fillColor=inherit;fontStyle=0;align=center;whiteSpace=wrap;html=1;" parent="0Ellkbo9NkKinEL8UdBw-145" vertex="1">
          <mxGeometry x="290" width="140" height="47" as="geometry">
            <mxRectangle width="140" height="47" as="alternateBounds" />
          </mxGeometry>
        </mxCell>
        <mxCell id="0Ellkbo9NkKinEL8UdBw-170" value="&lt;p style=&quot;margin: 0px; font-style: normal; font-variant-caps: normal; font-stretch: normal; line-height: normal; font-family: &amp;quot;Helvetica Neue&amp;quot;; font-size-adjust: none; font-kerning: auto; font-variant-alternates: normal; font-variant-ligatures: normal; font-variant-numeric: normal; font-variant-east-asian: normal; font-variant-position: normal; font-feature-settings: normal; font-optical-sizing: auto; font-variation-settings: normal;&quot;&gt;Ha llegado roto&lt;/p&gt;" style="connectable=0;recursiveResize=0;strokeColor=inherit;fillColor=inherit;fontStyle=0;align=center;whiteSpace=wrap;html=1;" parent="0Ellkbo9NkKinEL8UdBw-145" vertex="1">
          <mxGeometry x="430" width="260" height="47" as="geometry">
            <mxRectangle width="260" height="47" as="alternateBounds" />
          </mxGeometry>
        </mxCell>
        <mxCell id="0Ellkbo9NkKinEL8UdBw-165" value="&lt;p style=&quot;margin: 0px; font-style: normal; font-variant-caps: normal; font-stretch: normal; line-height: normal; font-family: &amp;quot;Helvetica Neue&amp;quot;; font-size-adjust: none; font-kerning: auto; font-variant-alternates: normal; font-variant-ligatures: normal; font-variant-numeric: normal; font-variant-east-asian: normal; font-variant-position: normal; font-feature-settings: normal; font-optical-sizing: auto; font-variation-settings: normal;&quot;&gt;Patri Maison&lt;/p&gt;" style="connectable=0;recursiveResize=0;strokeColor=inherit;fillColor=inherit;fontStyle=0;align=center;whiteSpace=wrap;html=1;" parent="0Ellkbo9NkKinEL8UdBw-145" vertex="1">
          <mxGeometry x="690" width="140" height="47" as="geometry">
            <mxRectangle width="140" height="47" as="alternateBounds" />
          </mxGeometry>
        </mxCell>
        <mxCell id="0Ellkbo9NkKinEL8UdBw-160" value="&lt;p style=&quot;margin: 0px; font-style: normal; font-variant-caps: normal; font-stretch: normal; line-height: normal; font-family: &amp;quot;Helvetica Neue&amp;quot;; font-size-adjust: none; font-kerning: auto; font-variant-alternates: normal; font-variant-ligatures: normal; font-variant-numeric: normal; font-variant-east-asian: normal; font-variant-position: normal; font-feature-settings: normal; font-optical-sizing: auto; font-variation-settings: normal;&quot;&gt;Revisado en EspaÃ±a el 17 de abril de 2024&lt;/p&gt;" style="connectable=0;recursiveResize=0;strokeColor=inherit;fillColor=inherit;fontStyle=0;align=center;whiteSpace=wrap;html=1;" parent="0Ellkbo9NkKinEL8UdBw-145" vertex="1">
          <mxGeometry x="830" width="170" height="47" as="geometry">
            <mxRectangle width="170" height="47" as="alternateBounds" />
          </mxGeometry>
        </mxCell>
        <mxCell id="0Ellkbo9NkKinEL8UdBw-148" style="shape=tableRow;horizontal=0;startSize=0;swimlaneHead=0;swimlaneBody=0;top=0;left=0;bottom=0;right=0;dropTarget=0;collapsible=0;recursiveResize=0;expand=0;fontStyle=0;strokeColor=inherit;fillColor=#ffffff;" parent="0Ellkbo9NkKinEL8UdBw-135" vertex="1">
          <mxGeometry y="191" width="1000" height="47" as="geometry" />
        </mxCell>
        <mxCell id="0Ellkbo9NkKinEL8UdBw-149" style="connectable=0;recursiveResize=0;strokeColor=inherit;fillColor=inherit;fontStyle=0;align=center;whiteSpace=wrap;html=1;" parent="0Ellkbo9NkKinEL8UdBw-148" vertex="1">
          <mxGeometry width="144" height="47" as="geometry">
            <mxRectangle width="144" height="47" as="alternateBounds" />
          </mxGeometry>
        </mxCell>
        <mxCell id="0Ellkbo9NkKinEL8UdBw-150" style="connectable=0;recursiveResize=0;strokeColor=inherit;fillColor=inherit;fontStyle=0;align=center;whiteSpace=wrap;html=1;" parent="0Ellkbo9NkKinEL8UdBw-148" vertex="1">
          <mxGeometry x="144" width="146" height="47" as="geometry">
            <mxRectangle width="146" height="47" as="alternateBounds" />
          </mxGeometry>
        </mxCell>
        <mxCell id="0Ellkbo9NkKinEL8UdBw-155" style="connectable=0;recursiveResize=0;strokeColor=inherit;fillColor=inherit;fontStyle=0;align=center;whiteSpace=wrap;html=1;" parent="0Ellkbo9NkKinEL8UdBw-148" vertex="1">
          <mxGeometry x="290" width="140" height="47" as="geometry">
            <mxRectangle width="140" height="47" as="alternateBounds" />
          </mxGeometry>
        </mxCell>
        <mxCell id="0Ellkbo9NkKinEL8UdBw-171" style="connectable=0;recursiveResize=0;strokeColor=inherit;fillColor=inherit;fontStyle=0;align=center;whiteSpace=wrap;html=1;" parent="0Ellkbo9NkKinEL8UdBw-148" vertex="1">
          <mxGeometry x="430" width="260" height="47" as="geometry">
            <mxRectangle width="260" height="47" as="alternateBounds" />
          </mxGeometry>
        </mxCell>
        <mxCell id="0Ellkbo9NkKinEL8UdBw-166" style="connectable=0;recursiveResize=0;strokeColor=inherit;fillColor=inherit;fontStyle=0;align=center;whiteSpace=wrap;html=1;" parent="0Ellkbo9NkKinEL8UdBw-148" vertex="1">
          <mxGeometry x="690" width="140" height="47" as="geometry">
            <mxRectangle width="140" height="47" as="alternateBounds" />
          </mxGeometry>
        </mxCell>
        <mxCell id="0Ellkbo9NkKinEL8UdBw-161" style="connectable=0;recursiveResize=0;strokeColor=inherit;fillColor=inherit;fontStyle=0;align=center;whiteSpace=wrap;html=1;" parent="0Ellkbo9NkKinEL8UdBw-148" vertex="1">
          <mxGeometry x="830" width="170" height="47" as="geometry">
            <mxRectangle width="170" height="47" as="alternateBounds" />
          </mxGeometry>
        </mxCell>
        <mxCell id="0Ellkbo9NkKinEL8UdBw-172" value="" style="endArrow=classic;html=1;rounded=0;exitX=0;exitY=0.5;exitDx=0;exitDy=0;" parent="1" edge="1">
          <mxGeometry width="50" height="50" relative="1" as="geometry">
            <mxPoint x="-440" y="-130" as="sourcePoint" />
            <mxPoint x="-550" y="-130" as="targetPoint" />
          </mxGeometry>
        </mxCell>
        <mxCell id="0Ellkbo9NkKinEL8UdBw-173" value="" style="endArrow=classic;html=1;rounded=0;exitX=0;exitY=0.5;exitDx=0;exitDy=0;" parent="1" edge="1">
          <mxGeometry width="50" height="50" relative="1" as="geometry">
            <mxPoint x="-440" y="-93" as="sourcePoint" />
            <mxPoint x="-550" y="-93" as="targetPoint" />
          </mxGeometry>
        </mxCell>
        <mxCell id="0Ellkbo9NkKinEL8UdBw-174" value="" style="endArrow=classic;html=1;rounded=0;exitX=0;exitY=0.5;exitDx=0;exitDy=0;" parent="1" edge="1">
          <mxGeometry width="50" height="50" relative="1" as="geometry">
            <mxPoint x="-440" y="-56" as="sourcePoint" />
            <mxPoint x="-550" y="-56" as="targetPoint" />
          </mxGeometry>
        </mxCell>
        <mxCell id="0Ellkbo9NkKinEL8UdBw-175" style="edgeStyle=orthogonalEdgeStyle;html=1;labelBackgroundColor=none;startFill=0;startSize=8;endFill=1;endSize=8;fontFamily=Verdana;fontSize=12;exitX=0;exitY=0.5;exitDx=0;exitDy=0;" parent="1" edge="1">
          <mxGeometry relative="1" as="geometry">
            <mxPoint x="-85" y="160" as="sourcePoint" />
            <mxPoint x="-125" y="280" as="targetPoint" />
            <Array as="points">
              <mxPoint x="-125" y="160" />
            </Array>
          </mxGeometry>
        </mxCell>
        <mxCell id="3wNGQiV5R0WnUlMMZM8s-6" value="" style="endArrow=classic;html=1;rounded=0;exitX=0;exitY=0.5;exitDx=0;exitDy=0;" edge="1" parent="1">
          <mxGeometry width="50" height="50" relative="1" as="geometry">
            <mxPoint x="-85" y="-380" as="sourcePoint" />
            <mxPoint x="-195" y="-380" as="targetPoint" />
          </mxGeometry>
        </mxCell>
        <mxCell id="3wNGQiV5R0WnUlMMZM8s-29" style="edgeStyle=orthogonalEdgeStyle;html=1;labelBackgroundColor=none;startFill=0;startSize=8;endFill=1;endSize=8;fontFamily=Verdana;fontSize=12;entryX=0.5;entryY=1;entryDx=0;entryDy=0;exitX=0;exitY=0.5;exitDx=0;exitDy=0;" edge="1" parent="1" target="0Ellkbo9NkKinEL8UdBw-81">
          <mxGeometry relative="1" as="geometry">
            <mxPoint x="290" y="-130" as="sourcePoint" />
            <mxPoint x="115" y="-31" as="targetPoint" />
            <Array as="points">
              <mxPoint x="115" y="-130" />
            </Array>
          </mxGeometry>
        </mxCell>
        <mxCell id="3wNGQiV5R0WnUlMMZM8s-30" value="&lt;font style=&quot;font-size: 14px;&quot;&gt;2.csv&lt;/font&gt;" style="swimlane;html=1;fontStyle=0;childLayout=stackLayout;horizontal=1;startSize=26;fillColor=#e0e0e0;horizontalStack=0;resizeParent=1;resizeLast=0;collapsible=1;marginBottom=0;swimlaneFillColor=#ffffff;align=center;rounded=1;shadow=0;comic=0;labelBackgroundColor=none;strokeWidth=1;fontFamily=Verdana;fontSize=12" vertex="1" parent="1">
          <mxGeometry x="-85" y="42" width="400" height="212" as="geometry" />
        </mxCell>
        <mxCell id="3wNGQiV5R0WnUlMMZM8s-31" value="Assets" style="childLayout=tableLayout;recursiveResize=0;shadow=1;" vertex="1" parent="3wNGQiV5R0WnUlMMZM8s-30">
          <mxGeometry y="26" width="400" height="186" as="geometry" />
        </mxCell>
        <mxCell id="3wNGQiV5R0WnUlMMZM8s-32" style="shape=tableRow;horizontal=0;startSize=0;swimlaneHead=0;swimlaneBody=0;top=0;left=0;bottom=0;right=0;dropTarget=0;collapsible=0;recursiveResize=0;expand=0;fontStyle=0;strokeColor=inherit;fillColor=#ffffff;" vertex="1" parent="3wNGQiV5R0WnUlMMZM8s-31">
          <mxGeometry width="400" height="37" as="geometry" />
        </mxCell>
        <mxCell id="3wNGQiV5R0WnUlMMZM8s-33" value="&lt;font style=&quot;font-size: 14px;&quot;&gt;ID&lt;/font&gt;" style="connectable=0;recursiveResize=0;align=center;fontStyle=1;html=1;" vertex="1" parent="3wNGQiV5R0WnUlMMZM8s-32">
          <mxGeometry width="90" height="37" as="geometry">
            <mxRectangle width="90" height="37" as="alternateBounds" />
          </mxGeometry>
        </mxCell>
        <mxCell id="3wNGQiV5R0WnUlMMZM8s-34" value="&lt;font style=&quot;font-size: 14px;&quot;&gt;goods_url&lt;/font&gt;" style="connectable=0;recursiveResize=0;align=center;fontStyle=1;html=1;" vertex="1" parent="3wNGQiV5R0WnUlMMZM8s-32">
          <mxGeometry x="90" width="155" height="37" as="geometry">
            <mxRectangle width="155" height="37" as="alternateBounds" />
          </mxGeometry>
        </mxCell>
        <mxCell id="3wNGQiV5R0WnUlMMZM8s-35" value="&lt;font style=&quot;font-size: 14px;&quot;&gt;reviews_url&lt;/font&gt;" style="connectable=0;recursiveResize=0;align=center;fontStyle=1;html=1;" vertex="1" parent="3wNGQiV5R0WnUlMMZM8s-32">
          <mxGeometry x="245" width="155" height="37" as="geometry">
            <mxRectangle width="155" height="37" as="alternateBounds" />
          </mxGeometry>
        </mxCell>
        <mxCell id="3wNGQiV5R0WnUlMMZM8s-36" value="" style="shape=tableRow;horizontal=0;startSize=0;swimlaneHead=0;swimlaneBody=0;top=0;left=0;bottom=0;right=0;dropTarget=0;collapsible=0;recursiveResize=0;expand=0;fontStyle=0;strokeColor=inherit;fillColor=#ffffff;" vertex="1" parent="3wNGQiV5R0WnUlMMZM8s-31">
          <mxGeometry y="37" width="400" height="37" as="geometry" />
        </mxCell>
        <mxCell id="3wNGQiV5R0WnUlMMZM8s-37" value="2-000000" style="connectable=0;recursiveResize=0;strokeColor=inherit;fillColor=inherit;align=center;whiteSpace=wrap;html=1;" vertex="1" parent="3wNGQiV5R0WnUlMMZM8s-36">
          <mxGeometry width="90" height="37" as="geometry">
            <mxRectangle width="90" height="37" as="alternateBounds" />
          </mxGeometry>
        </mxCell>
        <mxCell id="3wNGQiV5R0WnUlMMZM8s-38" value="https://www.amazon.es..." style="connectable=0;recursiveResize=0;strokeColor=inherit;fillColor=inherit;align=center;whiteSpace=wrap;html=1;" vertex="1" parent="3wNGQiV5R0WnUlMMZM8s-36">
          <mxGeometry x="90" width="155" height="37" as="geometry">
            <mxRectangle width="155" height="37" as="alternateBounds" />
          </mxGeometry>
        </mxCell>
        <mxCell id="3wNGQiV5R0WnUlMMZM8s-39" value="https://www.amazon.es..." style="connectable=0;recursiveResize=0;strokeColor=inherit;fillColor=inherit;align=center;whiteSpace=wrap;html=1;" vertex="1" parent="3wNGQiV5R0WnUlMMZM8s-36">
          <mxGeometry x="245" width="155" height="37" as="geometry">
            <mxRectangle width="155" height="37" as="alternateBounds" />
          </mxGeometry>
        </mxCell>
        <mxCell id="3wNGQiV5R0WnUlMMZM8s-40" value="" style="shape=tableRow;horizontal=0;startSize=0;swimlaneHead=0;swimlaneBody=0;top=0;left=0;bottom=0;right=0;dropTarget=0;collapsible=0;recursiveResize=0;expand=0;fontStyle=1;strokeColor=inherit;fillColor=#EAF2D3;" vertex="1" parent="3wNGQiV5R0WnUlMMZM8s-31">
          <mxGeometry y="74" width="400" height="38" as="geometry" />
        </mxCell>
        <mxCell id="3wNGQiV5R0WnUlMMZM8s-41" value="2-000001" style="connectable=0;recursiveResize=0;whiteSpace=wrap;html=1;" vertex="1" parent="3wNGQiV5R0WnUlMMZM8s-40">
          <mxGeometry width="90" height="38" as="geometry">
            <mxRectangle width="90" height="38" as="alternateBounds" />
          </mxGeometry>
        </mxCell>
        <mxCell id="3wNGQiV5R0WnUlMMZM8s-42" value="https://www.amazon.es..." style="connectable=0;recursiveResize=0;whiteSpace=wrap;html=1;" vertex="1" parent="3wNGQiV5R0WnUlMMZM8s-40">
          <mxGeometry x="90" width="155" height="38" as="geometry">
            <mxRectangle width="155" height="38" as="alternateBounds" />
          </mxGeometry>
        </mxCell>
        <mxCell id="3wNGQiV5R0WnUlMMZM8s-43" value="https://www.amazon.es..." style="connectable=0;recursiveResize=0;whiteSpace=wrap;html=1;" vertex="1" parent="3wNGQiV5R0WnUlMMZM8s-40">
          <mxGeometry x="245" width="155" height="38" as="geometry">
            <mxRectangle width="155" height="38" as="alternateBounds" />
          </mxGeometry>
        </mxCell>
        <mxCell id="3wNGQiV5R0WnUlMMZM8s-44" value="" style="shape=tableRow;horizontal=0;startSize=0;swimlaneHead=0;swimlaneBody=0;top=0;left=0;bottom=0;right=0;dropTarget=0;collapsible=0;recursiveResize=0;expand=0;fontStyle=0;strokeColor=inherit;fillColor=#ffffff;" vertex="1" parent="3wNGQiV5R0WnUlMMZM8s-31">
          <mxGeometry y="112" width="400" height="37" as="geometry" />
        </mxCell>
        <mxCell id="3wNGQiV5R0WnUlMMZM8s-45" value="2-000002" style="connectable=0;recursiveResize=0;strokeColor=inherit;fillColor=inherit;fontStyle=0;align=center;whiteSpace=wrap;html=1;" vertex="1" parent="3wNGQiV5R0WnUlMMZM8s-44">
          <mxGeometry width="90" height="37" as="geometry">
            <mxRectangle width="90" height="37" as="alternateBounds" />
          </mxGeometry>
        </mxCell>
        <mxCell id="3wNGQiV5R0WnUlMMZM8s-46" value="https://www.amazon.es..." style="connectable=0;recursiveResize=0;strokeColor=inherit;fillColor=inherit;fontStyle=0;align=center;whiteSpace=wrap;html=1;" vertex="1" parent="3wNGQiV5R0WnUlMMZM8s-44">
          <mxGeometry x="90" width="155" height="37" as="geometry">
            <mxRectangle width="155" height="37" as="alternateBounds" />
          </mxGeometry>
        </mxCell>
        <mxCell id="3wNGQiV5R0WnUlMMZM8s-47" value="https://www.amazon.es..." style="connectable=0;recursiveResize=0;strokeColor=inherit;fillColor=inherit;fontStyle=0;align=center;whiteSpace=wrap;html=1;" vertex="1" parent="3wNGQiV5R0WnUlMMZM8s-44">
          <mxGeometry x="245" width="155" height="37" as="geometry">
            <mxRectangle width="155" height="37" as="alternateBounds" />
          </mxGeometry>
        </mxCell>
        <mxCell id="3wNGQiV5R0WnUlMMZM8s-48" style="shape=tableRow;horizontal=0;startSize=0;swimlaneHead=0;swimlaneBody=0;top=0;left=0;bottom=0;right=0;dropTarget=0;collapsible=0;recursiveResize=0;expand=0;fontStyle=0;strokeColor=inherit;fillColor=#ffffff;" vertex="1" parent="3wNGQiV5R0WnUlMMZM8s-31">
          <mxGeometry y="149" width="400" height="37" as="geometry" />
        </mxCell>
        <mxCell id="3wNGQiV5R0WnUlMMZM8s-49" style="connectable=0;recursiveResize=0;strokeColor=inherit;fillColor=inherit;fontStyle=0;align=center;whiteSpace=wrap;html=1;" vertex="1" parent="3wNGQiV5R0WnUlMMZM8s-48">
          <mxGeometry width="90" height="37" as="geometry">
            <mxRectangle width="90" height="37" as="alternateBounds" />
          </mxGeometry>
        </mxCell>
        <mxCell id="3wNGQiV5R0WnUlMMZM8s-50" style="connectable=0;recursiveResize=0;strokeColor=inherit;fillColor=inherit;fontStyle=0;align=center;whiteSpace=wrap;html=1;" vertex="1" parent="3wNGQiV5R0WnUlMMZM8s-48">
          <mxGeometry x="90" width="155" height="37" as="geometry">
            <mxRectangle width="155" height="37" as="alternateBounds" />
          </mxGeometry>
        </mxCell>
        <mxCell id="3wNGQiV5R0WnUlMMZM8s-51" style="connectable=0;recursiveResize=0;strokeColor=inherit;fillColor=inherit;fontStyle=0;align=center;whiteSpace=wrap;html=1;" vertex="1" parent="3wNGQiV5R0WnUlMMZM8s-48">
          <mxGeometry x="245" width="155" height="37" as="geometry">
            <mxRectangle width="155" height="37" as="alternateBounds" />
          </mxGeometry>
        </mxCell>
        <mxCell id="3wNGQiV5R0WnUlMMZM8s-52" style="edgeStyle=orthogonalEdgeStyle;html=1;labelBackgroundColor=none;startFill=0;startSize=8;endFill=1;endSize=8;fontFamily=Verdana;fontSize=12;exitX=0;exitY=0.5;exitDx=0;exitDy=0;" edge="1" parent="1">
          <mxGeometry relative="1" as="geometry">
            <mxPoint x="-85" y="200" as="sourcePoint" />
            <mxPoint x="-100" y="280" as="targetPoint" />
            <Array as="points">
              <mxPoint x="-100" y="200" />
            </Array>
          </mxGeometry>
        </mxCell>
        <mxCell id="3wNGQiV5R0WnUlMMZM8s-53" value="&lt;font style=&quot;font-size: 14px;&quot;&gt;1.csv&lt;/font&gt;" style="swimlane;html=1;fontStyle=0;childLayout=stackLayout;horizontal=1;startSize=26;fillColor=#e0e0e0;horizontalStack=0;resizeParent=1;resizeLast=0;collapsible=1;marginBottom=0;swimlaneFillColor=#ffffff;align=center;rounded=1;shadow=0;comic=0;labelBackgroundColor=none;strokeWidth=1;fontFamily=Verdana;fontSize=12" vertex="1" parent="1">
          <mxGeometry x="-442" y="-213" width="400" height="212" as="geometry" />
        </mxCell>
        <mxCell id="3wNGQiV5R0WnUlMMZM8s-54" value="Assets" style="childLayout=tableLayout;recursiveResize=0;shadow=1;" vertex="1" parent="3wNGQiV5R0WnUlMMZM8s-53">
          <mxGeometry y="26" width="400" height="186" as="geometry" />
        </mxCell>
        <mxCell id="3wNGQiV5R0WnUlMMZM8s-55" style="shape=tableRow;horizontal=0;startSize=0;swimlaneHead=0;swimlaneBody=0;top=0;left=0;bottom=0;right=0;dropTarget=0;collapsible=0;recursiveResize=0;expand=0;fontStyle=0;strokeColor=inherit;fillColor=#ffffff;" vertex="1" parent="3wNGQiV5R0WnUlMMZM8s-54">
          <mxGeometry width="400" height="37" as="geometry" />
        </mxCell>
        <mxCell id="3wNGQiV5R0WnUlMMZM8s-56" value="&lt;font style=&quot;font-size: 14px;&quot;&gt;ID&lt;/font&gt;" style="connectable=0;recursiveResize=0;align=center;fontStyle=1;html=1;" vertex="1" parent="3wNGQiV5R0WnUlMMZM8s-55">
          <mxGeometry width="90" height="37" as="geometry">
            <mxRectangle width="90" height="37" as="alternateBounds" />
          </mxGeometry>
        </mxCell>
        <mxCell id="3wNGQiV5R0WnUlMMZM8s-57" value="&lt;font style=&quot;font-size: 14px;&quot;&gt;goods_url&lt;/font&gt;" style="connectable=0;recursiveResize=0;align=center;fontStyle=1;html=1;" vertex="1" parent="3wNGQiV5R0WnUlMMZM8s-55">
          <mxGeometry x="90" width="155" height="37" as="geometry">
            <mxRectangle width="155" height="37" as="alternateBounds" />
          </mxGeometry>
        </mxCell>
        <mxCell id="3wNGQiV5R0WnUlMMZM8s-58" value="&lt;font style=&quot;font-size: 14px;&quot;&gt;reviews_url&lt;/font&gt;" style="connectable=0;recursiveResize=0;align=center;fontStyle=1;html=1;" vertex="1" parent="3wNGQiV5R0WnUlMMZM8s-55">
          <mxGeometry x="245" width="155" height="37" as="geometry">
            <mxRectangle width="155" height="37" as="alternateBounds" />
          </mxGeometry>
        </mxCell>
        <mxCell id="3wNGQiV5R0WnUlMMZM8s-59" value="" style="shape=tableRow;horizontal=0;startSize=0;swimlaneHead=0;swimlaneBody=0;top=0;left=0;bottom=0;right=0;dropTarget=0;collapsible=0;recursiveResize=0;expand=0;fontStyle=0;strokeColor=inherit;fillColor=#ffffff;" vertex="1" parent="3wNGQiV5R0WnUlMMZM8s-54">
          <mxGeometry y="37" width="400" height="37" as="geometry" />
        </mxCell>
        <mxCell id="3wNGQiV5R0WnUlMMZM8s-60" value="1-000000" style="connectable=0;recursiveResize=0;strokeColor=inherit;fillColor=inherit;align=center;whiteSpace=wrap;html=1;" vertex="1" parent="3wNGQiV5R0WnUlMMZM8s-59">
          <mxGeometry width="90" height="37" as="geometry">
            <mxRectangle width="90" height="37" as="alternateBounds" />
          </mxGeometry>
        </mxCell>
        <mxCell id="3wNGQiV5R0WnUlMMZM8s-61" value="https://www.amazon.es..." style="connectable=0;recursiveResize=0;strokeColor=inherit;fillColor=inherit;align=center;whiteSpace=wrap;html=1;" vertex="1" parent="3wNGQiV5R0WnUlMMZM8s-59">
          <mxGeometry x="90" width="155" height="37" as="geometry">
            <mxRectangle width="155" height="37" as="alternateBounds" />
          </mxGeometry>
        </mxCell>
        <mxCell id="3wNGQiV5R0WnUlMMZM8s-62" value="https://www.amazon.es..." style="connectable=0;recursiveResize=0;strokeColor=inherit;fillColor=inherit;align=center;whiteSpace=wrap;html=1;" vertex="1" parent="3wNGQiV5R0WnUlMMZM8s-59">
          <mxGeometry x="245" width="155" height="37" as="geometry">
            <mxRectangle width="155" height="37" as="alternateBounds" />
          </mxGeometry>
        </mxCell>
        <mxCell id="3wNGQiV5R0WnUlMMZM8s-63" value="" style="shape=tableRow;horizontal=0;startSize=0;swimlaneHead=0;swimlaneBody=0;top=0;left=0;bottom=0;right=0;dropTarget=0;collapsible=0;recursiveResize=0;expand=0;fontStyle=1;strokeColor=inherit;fillColor=#EAF2D3;" vertex="1" parent="3wNGQiV5R0WnUlMMZM8s-54">
          <mxGeometry y="74" width="400" height="38" as="geometry" />
        </mxCell>
        <mxCell id="3wNGQiV5R0WnUlMMZM8s-64" value="1-000001" style="connectable=0;recursiveResize=0;whiteSpace=wrap;html=1;" vertex="1" parent="3wNGQiV5R0WnUlMMZM8s-63">
          <mxGeometry width="90" height="38" as="geometry">
            <mxRectangle width="90" height="38" as="alternateBounds" />
          </mxGeometry>
        </mxCell>
        <mxCell id="3wNGQiV5R0WnUlMMZM8s-65" value="https://www.amazon.es..." style="connectable=0;recursiveResize=0;whiteSpace=wrap;html=1;" vertex="1" parent="3wNGQiV5R0WnUlMMZM8s-63">
          <mxGeometry x="90" width="155" height="38" as="geometry">
            <mxRectangle width="155" height="38" as="alternateBounds" />
          </mxGeometry>
        </mxCell>
        <mxCell id="3wNGQiV5R0WnUlMMZM8s-66" value="https://www.amazon.es..." style="connectable=0;recursiveResize=0;whiteSpace=wrap;html=1;" vertex="1" parent="3wNGQiV5R0WnUlMMZM8s-63">
          <mxGeometry x="245" width="155" height="38" as="geometry">
            <mxRectangle width="155" height="38" as="alternateBounds" />
          </mxGeometry>
        </mxCell>
        <mxCell id="3wNGQiV5R0WnUlMMZM8s-67" value="" style="shape=tableRow;horizontal=0;startSize=0;swimlaneHead=0;swimlaneBody=0;top=0;left=0;bottom=0;right=0;dropTarget=0;collapsible=0;recursiveResize=0;expand=0;fontStyle=0;strokeColor=inherit;fillColor=#ffffff;" vertex="1" parent="3wNGQiV5R0WnUlMMZM8s-54">
          <mxGeometry y="112" width="400" height="37" as="geometry" />
        </mxCell>
        <mxCell id="3wNGQiV5R0WnUlMMZM8s-68" value="1-000002" style="connectable=0;recursiveResize=0;strokeColor=inherit;fillColor=inherit;fontStyle=0;align=center;whiteSpace=wrap;html=1;" vertex="1" parent="3wNGQiV5R0WnUlMMZM8s-67">
          <mxGeometry width="90" height="37" as="geometry">
            <mxRectangle width="90" height="37" as="alternateBounds" />
          </mxGeometry>
        </mxCell>
        <mxCell id="3wNGQiV5R0WnUlMMZM8s-69" value="https://www.amazon.es..." style="connectable=0;recursiveResize=0;strokeColor=inherit;fillColor=inherit;fontStyle=0;align=center;whiteSpace=wrap;html=1;" vertex="1" parent="3wNGQiV5R0WnUlMMZM8s-67">
          <mxGeometry x="90" width="155" height="37" as="geometry">
            <mxRectangle width="155" height="37" as="alternateBounds" />
          </mxGeometry>
        </mxCell>
        <mxCell id="3wNGQiV5R0WnUlMMZM8s-70" value="https://www.amazon.es..." style="connectable=0;recursiveResize=0;strokeColor=inherit;fillColor=inherit;fontStyle=0;align=center;whiteSpace=wrap;html=1;" vertex="1" parent="3wNGQiV5R0WnUlMMZM8s-67">
          <mxGeometry x="245" width="155" height="37" as="geometry">
            <mxRectangle width="155" height="37" as="alternateBounds" />
          </mxGeometry>
        </mxCell>
        <mxCell id="3wNGQiV5R0WnUlMMZM8s-71" style="shape=tableRow;horizontal=0;startSize=0;swimlaneHead=0;swimlaneBody=0;top=0;left=0;bottom=0;right=0;dropTarget=0;collapsible=0;recursiveResize=0;expand=0;fontStyle=0;strokeColor=inherit;fillColor=#ffffff;" vertex="1" parent="3wNGQiV5R0WnUlMMZM8s-54">
          <mxGeometry y="149" width="400" height="37" as="geometry" />
        </mxCell>
        <mxCell id="3wNGQiV5R0WnUlMMZM8s-72" style="connectable=0;recursiveResize=0;strokeColor=inherit;fillColor=inherit;fontStyle=0;align=center;whiteSpace=wrap;html=1;" vertex="1" parent="3wNGQiV5R0WnUlMMZM8s-71">
          <mxGeometry width="90" height="37" as="geometry">
            <mxRectangle width="90" height="37" as="alternateBounds" />
          </mxGeometry>
        </mxCell>
        <mxCell id="3wNGQiV5R0WnUlMMZM8s-73" style="connectable=0;recursiveResize=0;strokeColor=inherit;fillColor=inherit;fontStyle=0;align=center;whiteSpace=wrap;html=1;" vertex="1" parent="3wNGQiV5R0WnUlMMZM8s-71">
          <mxGeometry x="90" width="155" height="37" as="geometry">
            <mxRectangle width="155" height="37" as="alternateBounds" />
          </mxGeometry>
        </mxCell>
        <mxCell id="3wNGQiV5R0WnUlMMZM8s-74" style="connectable=0;recursiveResize=0;strokeColor=inherit;fillColor=inherit;fontStyle=0;align=center;whiteSpace=wrap;html=1;" vertex="1" parent="3wNGQiV5R0WnUlMMZM8s-71">
          <mxGeometry x="245" width="155" height="37" as="geometry">
            <mxRectangle width="155" height="37" as="alternateBounds" />
          </mxGeometry>
        </mxCell>
      </root>
    </mxGraphModel>
  </diagram>
</mxfile>
